<?xml version="1.0" encoding="utf-8"?>
<!-- Generator: Adobe Illustrator 19.2.1, SVG Export Plug-In . SVG Version: 6.00 Build 0)  -->
<svg version="1.1" id="Google_alt" xmlns="http://www.w3.org/2000/svg" xmlns:xlink="http://www.w3.org/1999/xlink" x="0px" y="0px"
	 viewBox="0 0 420 420" style="enable-background:new 0 0 420 420;" xml:space="preserve">
<title></title>
<path d="M298.4,1.4L210.3,0L210,0l-88.4,1.4C55.5,2.1,2.1,55.5,1.4,121.6L0,209.7l0,0.3l1.4,88.4c0.7,66.1,54.1,119.5,120.2,120.2
	l88.1,1.4l0.3,0l14.3-0.2V257.4h-54.7V194h54.7v-46.7c0-54.2,33.1-83.8,81.5-83.8c23.2,0,43.1,1.7,48.9,2.5v56.7l-33.6,0
	c-26.3,0-31.4,12.5-31.4,30.9V194h62.8l-8.2,63.4h-54.6v161.4l8.6-0.1c66.1-0.7,119.5-54.1,120.2-120.2l1.4-88.1l0-0.3l-1.4-88.4
	C417.9,55.5,364.5,2.1,298.4,1.4z"/>
</svg>
